<svg aria-hidden="true" style="position:absolute;width:0;height:0" xmlns="http://www.w3.org/2000/svg" overflow="hidden">
    <defs>
        
        
        <symbol id="icon-envelope-hover" viewBox="0 0 43 32">
            <path
                d="M38.667 0H4C1.794 0 0 1.794 0 4v24c0 2.206 1.794 4 4 4h34.667c2.206 0 4-1.794 4-4V4c0-2.206-1.794-4-4-4zm0 2.667c.181 0 .353.038.511.103L21.334 18.236 3.49 2.77a1.32 1.32 0 01.511-.103h34.667zm0 26.666H4A1.334 1.334 0 012.667 28V5.587L20.46 21.008a1.335 1.335 0 001.748 0L40.001 5.587V28c0 .736-.598 1.333-1.333 1.333z" />
        </symbol>

        <symbol id="icon-facebook" viewBox="0 0 32 32">
            <path
                d="M21.329 5.313h2.921V.225C23.746.156 22.013 0 19.994 0c-4.212 0-7.097 2.649-7.097 7.519V12H8.249v5.688h4.648V32h5.699V17.689h4.46l.708-5.688h-5.169V8.082c.001-1.644.444-2.769 2.735-2.769z" />
        </symbol>
       
        <symbol id="icon-instagram" viewBox="0 0 32 32">
            <path
                d="M31.969 9.408c-.075-1.7-.35-2.869-.744-3.882a7.806 7.806 0 00-1.851-2.838A7.867 7.867 0 0026.542.844C25.523.45 24.36.175 22.66.1 20.947.019 20.403 0 16.059 0s-4.888.019-6.595.094c-1.7.075-2.869.35-3.882.744a7.803 7.803 0 00-2.838 1.85A7.867 7.867 0 00.9 5.52C.506 6.539.231 7.702.156 9.402c-.081 1.713-.1 2.257-.1 6.601s.019 4.888.094 6.595c.075 1.7.35 2.869.744 3.882a7.895 7.895 0 001.85 2.838 7.867 7.867 0 002.832 1.844c1.019.394 2.182.669 3.882.744 1.706.075 2.25.094 6.595.094s4.888-.019 6.595-.094c1.7-.075 2.869-.35 3.882-.744a8.184 8.184 0 004.682-4.682c.394-1.019.669-2.182.744-3.882.075-1.707.094-2.251.094-6.595s-.006-4.888-.081-6.595zm-2.882 13.065c-.069 1.563-.331 2.407-.55 2.969a5.31 5.31 0 01-3.038 3.038c-.563.219-1.413.481-2.969.55-1.688.075-2.194.094-6.464.094s-4.782-.019-6.464-.094c-1.563-.069-2.407-.331-2.969-.55a4.926 4.926 0 01-1.838-1.194 4.974 4.974 0 01-1.194-1.838c-.219-.563-.481-1.413-.55-2.969-.075-1.688-.094-2.194-.094-6.464s.019-4.782.094-6.464c.069-1.563.331-2.407.55-2.969a4.868 4.868 0 011.2-1.838A4.974 4.974 0 016.639 3.55c.563-.219 1.413-.481 2.969-.55 1.688-.075 2.194-.094 6.464-.094 4.276 0 4.782.019 6.464.094 1.563.069 2.407.331 2.969.55a4.914 4.914 0 011.838 1.194 4.974 4.974 0 011.194 1.838c.219.563.481 1.413.55 2.969.075 1.688.094 2.194.094 6.464s-.019 4.77-.094 6.458z" />
            <path
                d="M16.059 7.783c-4.538 0-8.22 3.682-8.22 8.22s3.682 8.22 8.22 8.22c4.539 0 8.22-3.682 8.22-8.22s-3.682-8.22-8.22-8.22zm0 13.552a5.333 5.333 0 010-10.664 5.333 5.333 0 010 10.664zM26.524 7.458a1.919 1.919 0 11-3.838 0 1.919 1.919 0 013.838 0z" />
        </symbol>

        <symbol id="icon-linkedin" viewBox="0 0 32 32">
            <path
                d="M31.992 32v-.001H32V20.263c0-5.741-1.236-10.164-7.948-10.164-3.227 0-5.392 1.771-6.276 3.449h-.093v-2.913h-6.364v21.364h6.627V21.42c0-2.785.528-5.479 3.977-5.479 3.399 0 3.449 3.179 3.449 5.657v10.401h6.62zM.528 10.636h6.635V32H.528V10.636zM3.843 0C1.722 0 0 1.721 0 3.843s1.721 3.879 3.843 3.879c2.121 0 3.843-1.757 3.843-3.879A3.846 3.846 0 003.843 0z" />
        </symbol>

        <symbol id="icon-phone" viewBox="0 0 20 32">
            <path
                d="M17 0H3C1.346 0 0 1.346 0 3v26c0 1.654 1.346 3 3 3h14c1.654 0 3-1.346 3-3V3c0-1.654-1.346-3-3-3zM3 2h14a1 1 0 011 1v21H2V3a1 1 0 011-1zm14 28H3a1 1 0 01-1-1v-3h16v3a1 1 0 01-1 1z" />
        </symbol>
        
        <symbol id="icon-twitter" viewBox="0 0 32 32">
            <path
                d="M32 6.078c-1.19.522-2.458.868-3.78 1.036a6.523 6.523 0 002.886-3.626 13.11 13.11 0 01-4.16 1.588A6.574 6.574 0 0022.154 3c-3.632 0-6.556 2.948-6.556 6.562 0 .52.044 1.02.152 1.496-5.454-.266-10.28-2.88-13.522-6.862a6.605 6.605 0 00-.898 3.316 6.57 6.57 0 002.914 5.452 6.479 6.479 0 01-2.964-.808v.072c0 3.188 2.274 5.836 5.256 6.446a6.548 6.548 0 01-1.72.216 5.8 5.8 0 01-1.242-.112c.85 2.598 3.262 4.508 6.13 4.57a13.182 13.182 0 01-8.134 2.798c-.538 0-1.054-.024-1.57-.09A18.469 18.469 0 0010.064 29c12.072 0 18.672-10 18.672-18.668 0-.29-.01-.57-.024-.848A13.087 13.087 0 0032 6.078z" />
        </symbol>
        
        <symbol id="close" viewBox="0 0 18 18">
            <path
                d="M15 4.10786L13.8921 3L9.5 7.39214L5.10786 3L4 4.10786L8.39214 8.5L4 12.8921L5.10786 14L9.5 9.60786L13.8921 14L15 12.8921L10.6079 8.5L15 4.10786Z" />
        </symbol>

        <symbol id="send" viewBox="0 0 24 24">
            <path
                d="M24 0L0 13.5L7.66994 16.3407L19.5 5.25002L10.5017 17.3896L10.509 17.3923L10.5 17.3896V24.0001L14.8013 18.982L20.2501 21.0001L24 0Z" />
        </symbol>

        <symbol id="person" viewBox="0 0 18 18">
            <path
                d="M9 9C10.6575 9 12 7.6575 12 6C12 4.3425 10.6575 3 9 3C7.3425 3 6 4.3425 6 6C6 7.6575 7.3425 9 9 9ZM9 10.5C6.9975 10.5 3 11.505 3 13.5V14.25C3 14.6625 3.3375 15 3.75 15H14.25C14.6625 15 15 14.6625 15 14.25V13.5C15 11.505 11.0025 10.5 9 10.5Z" />
        </symbol>

        <symbol id="telephone" viewBox="0 0 18 18">
            <path
                d="M13.996 11.1226L12.1579 10.9127C11.7164 10.862 11.2822 11.014 10.971 11.3252L9.63945 12.6568C7.59144 11.6147 5.91251 9.94296 4.87041 7.8877L6.20922 6.54888C6.5204 6.2377 6.67237 5.80349 6.62171 5.36205L6.41185 3.53836C6.325 2.80745 5.70988 2.25745 4.97173 2.25745H3.71976C2.902 2.25745 2.22175 2.93771 2.2724 3.75547C2.65595 9.93572 7.59868 14.8712 13.7717 15.2548C14.5894 15.3054 15.2697 14.6252 15.2697 13.8074V12.5555C15.2769 11.8245 14.7269 11.2094 13.996 11.1226Z" />
        </symbol>

        <symbol id="email-box" viewBox="0 0 18 18">
            <path
                d="M15 3H3C2.175 3 1.5075 3.675 1.5075 4.5L1.5 13.5C1.5 14.325 2.175 15 3 15H15C15.825 15 16.5 14.325 16.5 13.5V4.5C16.5 3.675 15.825 3 15 3ZM14.7 6.1875L9.3975 9.5025C9.1575 9.6525 8.8425 9.6525 8.6025 9.5025L3.3 6.1875C3.1125 6.0675 3 5.865 3 5.6475C3 5.145 3.5475 4.845 3.975 5.1075L9 8.25L14.025 5.1075C14.4525 4.845 15 5.145 15 5.6475C15 5.865 14.8875 6.0675 14.7 6.1875Z" />
        </symbol>

        <symbol id="check" viewBox="0 0 13 10">
            <path
                d="M1.95703 4.75166L1.88825 4.68604L1.81923 4.75141L0.93123 5.59258L0.854858 5.66492L0.930974 5.73753L4.42671 9.07236L4.49574 9.1382L4.56476 9.07236L12.069 1.91352L12.1449 1.84116L12.069 1.76881L11.1873 0.927644L11.1183 0.861826L11.0493 0.927611L4.49577 7.17353L1.95703 4.75166Z" />
        </symbol>

        <symbol id="burger" viewBox="0 0 40 40">
            <path
                d="M8 14.6667V12H32V14.6667H8ZM8 21.3333H32V18.6667H8V21.3333ZM8 28H32V25.3333H8V28Z" />
        </symbol>

        <symbol id="cross" viewBox="0 0 40 40">
            <path
                d="M29.6667 12.88L27.7867 11L20.3333 18.4533L12.88 11L11 12.88L18.4533 20.3333L11 27.7867L12.88 29.6667L20.3333 22.2133L27.7867 29.6667L29.6667 27.7867L22.2133 20.3333L29.6667 12.88Z" />
        </symbol>

        <symbol id="icon-github" viewBox="0 0 32 32">
            <path d="M16 0.941c-8.271 0-15.059 6.788-15.059 15.059 0 7.058 4.953 13.47 11.529 15.059v-4.982c-0.652 0.143-1.251 0.147-1.915-0.049-0.89-0.263-1.613-0.856-2.15-1.76-0.342-0.577-0.949-1.203-1.581-1.157l-0.155-1.758c1.368-0.117 2.551 0.833 3.254 2.013 0.312 0.525 0.671 0.832 1.132 0.969 0.446 0.131 0.924 0.068 1.481-0.129 0.14-1.116 0.651-1.534 1.037-2.122v-0.001c-3.922-0.585-5.486-2.666-6.106-4.308-0.822-2.181-0.381-4.905 1.073-6.627 0.028-0.034 0.079-0.121 0.060-0.183-0.667-2.014 0.146-3.679 0.176-3.856 0.769 0.228 0.894-0.229 3.342 1.258l0.423 0.254c0.177 0.105 0.121 0.045 0.298 0.032 1.022-0.278 2.099-0.431 3.16-0.445 1.069 0.014 2.14 0.167 3.204 0.456l0.137 0.014c-0.012-0.002 0.037-0.009 0.12-0.058 3.057-1.852 2.947-1.247 3.767-1.513 0.030 0.177 0.831 1.87 0.172 3.858-0.089 0.274 2.65 2.782 1.132 6.809-0.62 1.643-2.184 3.724-6.106 4.309v0.001c0.503 0.766 1.107 1.174 1.104 2.755v6.219c6.577-1.589 11.529-8.001 11.529-15.059 0-8.271-6.787-15.059-15.059-15.059v0z"></path>
        </symbol>

        <symbol id="icon-telegram" viewBox="0 0 32 32">
            <path d="M12.964 19.8l-0.508 6.671c0.727 0 1.042-0.292 1.42-0.641l3.409-3.040 7.063 4.828c1.295 0.674 2.208 0.319 2.557-1.112l4.638-20.277c0.411-1.787-0.692-2.486-1.955-2.048l-27.252 9.738c-1.86 0.674-1.832 1.641-0.316 2.080l6.967 2.023 16.183-9.451c0.762-0.471 1.454-0.21 0.884 0.26l-13.091 10.971z"></path>
        </symbol>

    </defs>
</svg>